<svg width="93" height="83" viewBox="0 0 93 83" xmlns="http://www.w3.org/2000/svg">
<path d="M83.28 61.6577C98.845 45.7739 92.6969 26.2677 85.7479 15.8589C78.7989 5.45006 66.611 -1.29486 53.9469 0.183196C42.9714 1.47389 39.2479 7.05302 33.2081 18.7317C28.6404 27.6001 26.1508 33.3041 18.6606 31.722C12.5775 30.4521 13.7898 20.6886 24.0077 7.74001C26.0643 5.1378 23.8778 2.88949 20.8687 3.57647C17.8596 4.26346 1.92668 14.7347 0.259781 31.9301C-1.0391 45.2951 2.66271 53.9968 8.65922 58.0563C10.0114 59.0039 11.5621 59.6568 13.2033 59.9696C14.8445 60.2824 16.5369 60.2475 18.1627 59.8674C19.5837 59.5229 21.0714 59.5229 22.4923 59.8674C23.618 60.2838 25.588 61.6577 27.4281 62.2406C31.3695 63.6693 35.6318 64.0785 39.7891 63.4272C48.8813 62.2406 52.7779 57.182 59.4239 51.5612C69.9232 42.6512 77.5866 55.1002 63.1257 62.2406C59.6404 63.9685 52.9511 66.9038 50.007 71.1506C48.9552 72.3761 48.2821 73.8607 48.0639 75.4357C47.8458 77.0108 48.0915 78.6131 48.7731 80.0606C50.375 83.1624 53.7305 83.8494 54.2717 81.9342C55.0278 79.5382 56.541 77.4281 58.6013 75.897C64.771 71.1506 73.4085 71.7543 83.28 61.6577Z"  />
</svg>
